<?xml version="1.0" encoding="UTF-8" standalone="no"?>
<!-- Created with Inkscape (http://www.inkscape.org/) -->

<svg
   xmlns:dc="http://purl.org/dc/elements/1.1/"
   xmlns:cc="http://creativecommons.org/ns#"
   xmlns:rdf="http://www.w3.org/1999/02/22-rdf-syntax-ns#"
   xmlns:svg="http://www.w3.org/2000/svg"
   xmlns="http://www.w3.org/2000/svg"
   xmlns:xlink="http://www.w3.org/1999/xlink"
   xmlns:sodipodi="http://sodipodi.sourceforge.net/DTD/sodipodi-0.dtd"
   xmlns:inkscape="http://www.inkscape.org/namespaces/inkscape"
   width="294.31985"
   height="86.155853"
   id="svg4052"
   version="1.1"
   inkscape:version="0.48.4 r9939"
   sodipodi:docname="annotater.svg">
  <defs
     id="defs4054">
    <linearGradient
       id="linearGradient4573">
      <stop
         style="stop-color:#000000;stop-opacity:1;"
         offset="0"
         id="stop4575" />
      <stop
         id="stop4581"
         offset="0.47945204"
         style="stop-color:#000000;stop-opacity:0.49803922;" />
      <stop
         style="stop-color:#000000;stop-opacity:0;"
         offset="1"
         id="stop4577" />
    </linearGradient>
    <radialGradient
       inkscape:collect="always"
       xlink:href="#linearGradient4573"
       id="radialGradient4659"
       gradientUnits="userSpaceOnUse"
       cx="-238.05928"
       cy="273.55237"
       fx="-238.05928"
       fy="273.55237"
       r="38.890873" />
    <radialGradient
       inkscape:collect="always"
       xlink:href="#linearGradient4573"
       id="radialGradient4667"
       gradientUnits="userSpaceOnUse"
       cx="-238.05928"
       cy="273.55237"
       fx="-238.05928"
       fy="273.55237"
       r="38.890873" />
    <radialGradient
       inkscape:collect="always"
       xlink:href="#linearGradient4573"
       id="radialGradient4675"
       gradientUnits="userSpaceOnUse"
       cx="-238.05928"
       cy="273.55237"
       fx="-238.05928"
       fy="273.55237"
       r="38.890873" />
  </defs>
  <sodipodi:namedview
     id="base"
     pagecolor="#ffffff"
     bordercolor="#666666"
     borderopacity="1.0"
     inkscape:pageopacity="0.0"
     inkscape:pageshadow="2"
     inkscape:zoom="1"
     inkscape:cx="445.17488"
     inkscape:cy="28.727722"
     inkscape:current-layer="layer1"
     inkscape:document-units="px"
     showgrid="false"
     inkscape:window-width="1920"
     inkscape:window-height="1056"
     inkscape:window-x="0"
     inkscape:window-y="24"
     inkscape:window-maximized="1"
     fit-margin-top="0"
     fit-margin-left="0"
     fit-margin-right="0"
     fit-margin-bottom="0" />
  <metadata
     id="metadata4057">
    <rdf:RDF>
      <cc:Work
         rdf:about="">
        <dc:format>image/svg+xml</dc:format>
        <dc:type
           rdf:resource="http://purl.org/dc/dcmitype/StillImage" />
        <dc:title></dc:title>
      </cc:Work>
    </rdf:RDF>
  </metadata>
  <g
     id="layer1"
     inkscape:label="Layer 1"
     inkscape:groupmode="layer"
     transform="translate(-16.202737,-14.70547)">
    <text
       xml:space="preserve"
       style="font-size:40px;font-style:normal;font-weight:normal;line-height:125%;letter-spacing:0px;word-spacing:0px;fill:#000000;fill-opacity:1;stroke:none;font-family:Sans"
       x="308.33334"
       y="-193.33333"
       id="text4669"
       sodipodi:linespacing="125%"><tspan
         sodipodi:role="line"
         id="tspan4671"
         x="308.33334"
         y="-193.33333" /></text>
    <g
       id="g4094"
       transform="matrix(0.26514116,0,0,0.26514116,-181.45282,-136.3469)">
      <path
         d="m 1236.5638,724.74157 c -10e-5,11.18433 -1.3558,21.35183 -4.067,30.50254 -2.7114,9.1508 -6.6429,16.97977 -11.7943,23.48696 -5.0838,6.50722 -11.3199,11.52319 -18.7082,15.04792 -7.3207,3.52474 -15.6242,5.2871 -24.9104,5.28711 -9.8287,-10e-6 -18.4372,-1.83016 -25.8255,-5.49046 -7.3884,-3.72808 -13.5567,-8.87962 -18.5049,-15.45462 -4.9482,-6.64275 -8.6763,-14.50562 -11.1842,-23.58863 -2.4403,-9.08293 -3.6604,-19.01319 -3.6603,-29.79082 -1e-4,-11.18418 1.2878,-21.2839 3.8636,-30.29919 2.5758,-9.01509 6.3716,-16.6746 11.3876,-22.97858 5.0838,-6.37151 11.2859,-11.25191 18.6066,-14.64122 7.3883,-3.45681 15.8612,-5.18529 25.4188,-5.18543 9.5573,1.4e-4 18.0303,1.72862 25.4187,5.18543 7.3883,3.45709 13.5905,8.37138 18.6066,14.74289 5.0159,6.37176 8.8117,14.06517 11.3876,23.08026 2.6434,8.9475 3.9652,18.97944 3.9653,30.09584 m -25.1137,0 c -10e-5,-7.52388 -0.7457,-14.30222 -2.2369,-20.33503 -1.4235,-6.10041 -3.5926,-11.31973 -6.5072,-15.65797 -2.847,-4.33803 -6.4056,-7.65941 -10.6759,-9.96416 -4.2704,-2.3723 -9.2186,-3.55851 -14.8445,-3.55863 -5.7617,1.2e-4 -10.7777,1.18633 -15.048,3.55863 -4.2704,2.30475 -7.8629,5.62613 -10.7775,9.96416 -2.9147,4.33824 -5.0838,9.55756 -6.5072,15.65797 -1.4235,6.03281 -2.1352,12.81115 -2.1352,20.33503 0,7.45624 0.7117,14.30236 2.1352,20.53838 1.4912,6.16833 3.6602,11.48933 6.5072,15.96299 2.9146,4.47374 6.5071,7.96458 10.7775,10.47254 4.3381,2.50801 9.3202,3.76201 14.9463,3.76198 6.0326,3e-5 11.1842,-1.25397 15.4546,-3.76198 4.3381,-2.57574 7.8967,-6.10047 10.6759,-10.57421 2.8468,-4.54145 4.9142,-9.89634 6.2022,-16.06467 1.3555,-6.23602 2.0334,-13.01436 2.0335,-20.33503 m -140.9217,72.29102 -51.1426,-110.31752 c 0.2711,2.98258 0.5422,5.96504 0.8134,8.94741 0.2033,2.57587 0.3727,5.35499 0.5083,8.33736 0.1356,2.98256 0.2034,5.82946 0.2034,8.54071 l 0,84.49204 -21.86017,0 0,-143.26027 28.06237,0 51.956,111.2326 c -0.2713,-2.84686 -0.5085,-5.82933 -0.7118,-8.94741 -0.2034,-2.64351 -0.4068,-5.62598 -0.61,-8.94741 -0.1357,-3.32133 -0.2035,-6.67661 -0.2034,-10.06584 l 0,-83.27194 21.8602,0 0,143.26027 -28.8757,0 m -123.23032,0 -51.14259,-110.31752 c 0.2711,2.98258 0.54223,5.96504 0.8134,8.94741 0.20332,2.57587 0.37278,5.35499 0.50838,8.33736 0.13553,2.98256 0.20331,5.82946 0.20335,8.54071 l 0,84.49204 -21.86016,0 0,-143.26027 28.06234,0 51.956,111.2326 c -0.27123,-2.84686 -0.50847,-5.82933 -0.71173,-8.94741 -0.20344,-2.64351 -0.40679,-5.62598 -0.61005,-8.94741 -0.13566,-3.32133 -0.20344,-6.67661 -0.20335,-10.06584 l 0,-83.27194 21.86015,0 0,143.26027 -28.87574,0 m -111.74098,0 -10.37086,-36.60305 -44.73706,0 -10.37087,36.60305 -24.60538,0 42.80523,-143.26027 28.97742,0 42.70356,143.26027 -24.40204,0 M 808.10482,696.67923 c -7e-5,1e-4 -0.6779,-2.40621 -2.03351,-7.21893 -0.61011,-2.37231 -1.15238,-4.54138 -1.6268,-6.50721 l -1.2201,-4.98208 c -0.2712,-1.28777 -0.40676,-1.99949 -0.4067,-2.13518 -0.0679,0.20347 -0.2373,0.94909 -0.50838,2.23685 -0.27119,1.288 -0.644,2.9148 -1.11842,4.88041 -0.47455,1.96583 -1.01681,4.1349 -1.62681,6.50721 l -2.0335,7.21893 -11.59096,41.17843 33.75614,0 -11.59096,-41.17843"
         style="font-size:208.23068237px;font-style:normal;font-variant:normal;font-weight:bold;font-stretch:condensed;line-height:125%;letter-spacing:0px;word-spacing:0px;fill:#000000;fill-opacity:1;stroke:none;font-family:Liberation Sans Narrow;-inkscape-font-specification:Liberation Sans Narrow Bold Condensed"
         id="path3106"
         inkscape:connector-curvature="0" />
      <path
         style="fill:#926239;fill-opacity:1;stroke:#000000;stroke-width:4.10634041;stroke-linejoin:round;stroke-miterlimit:4;stroke-opacity:1;stroke-dasharray:none"
         d="m 1768.9412,818.47237 c -44.571,28.14212 -90.8878,29.18709 -144.4595,39.61208 -50.1127,9.75191 -107.3031,29.63201 -154.851,33.60701 -53.4596,4.46924 -110.0535,-7.75522 -159.7779,-33.88568 -26.9116,-14.14224 -58.7853,-23.81668 -71.1812,-56.56992 -27.0634,-71.50903 -26.8763,-130.34484 29.5644,-181.92404 78.567,-71.79936 204.7578,-46.3729 309.204,-25.90676 97.8661,19.17678 231.922,-63.03036 267.2214,30.24063 27.0635,71.50901 -11.0697,154.0064 -75.7202,194.82668 z"
         id="path3073"
         inkscape:connector-curvature="0"
         sodipodi:nodetypes="sssssssss" />
      <path
         d="m 1756.9372,797.03259 -27.2489,-54.3962 -28.8758,0 0,54.3962 -24.6054,0 0,-143.26027 58.6666,0 c 7.3205,1.5e-4 13.726,1.0169 19.2166,3.05026 5.4904,1.96586 10.0657,4.81276 13.7261,8.54071 3.6602,3.66043 6.3716,8.13413 8.134,13.42112 1.8301,5.21943 2.7452,11.11659 2.7453,17.69147 -10e-5,5.35499 -0.6441,10.26928 -1.9319,14.7429 -1.2879,4.406 -3.0842,8.33744 -5.3887,11.79431 -2.3048,3.45703 -5.05,6.37171 -8.2357,8.74406 -3.1859,2.3047 -6.6429,3.99929 -10.3709,5.08376 l 31.8243,60.19168 -27.6556,0 m -2.9486,-99.33661 c -10e-5,-6.98158 -1.898,-12.16701 -5.6938,-15.55629 -3.7282,-3.38906 -9.0492,-5.08364 -15.963,-5.08376 l -31.5193,0 0,42.29686 32.1294,0 c 3.6602,8e-5 6.8121,-0.5083 9.4557,-1.52513 2.6435,-1.08445 4.8126,-2.57569 6.5073,-4.47371 1.6945,-1.96563 2.9485,-4.27026 3.7619,-6.91391 0.8811,-2.64346 1.3217,-5.55814 1.3218,-8.74406 m -191.6576,99.33661 0,-143.26027 92.4227,0 0,23.18193 -67.8173,0 0,35.993 62.7335,0 0,23.18194 -62.7335,0 0,37.72147 71.1726,0 0,23.18193 -95.778,0 m -51.4476,-120.07834 0,120.07834 -24.6054,0 0,-120.07834 -37.9248,0 0,-23.18193 100.5567,0 0,23.18193 -38.0265,0 m -80.7301,120.07834 -10.3709,-36.60305 -44.737,0 -10.3709,36.60305 -24.6054,0 42.8053,-143.26027 28.9774,0 42.7035,143.26027 -24.402,0 M 1402.701,696.67923 c -10e-5,1e-4 -0.6779,-2.40621 -2.0335,-7.21893 -0.6101,-2.37231 -1.1524,-4.54138 -1.6268,-6.50721 l -1.2201,-4.98208 c -0.2712,-1.28777 -0.4068,-1.99949 -0.4067,-2.13518 -0.068,0.20347 -0.2373,0.94909 -0.5084,2.23685 -0.2712,1.288 -0.644,2.9148 -1.1184,4.88041 -0.4745,1.96583 -1.0168,4.1349 -1.6268,6.50721 l -2.0335,7.21893 -11.591,41.17843 33.7562,0 -11.591,-41.17843 m -94.3545,-19.72498 0,120.07834 -24.6054,0 0,-120.07834 -37.9248,0 0,-23.18193 100.5567,0 0,23.18193 -38.0265,0"
         style="font-size:208.23068237px;font-style:normal;font-variant:normal;font-weight:bold;font-stretch:condensed;line-height:125%;letter-spacing:0px;word-spacing:0px;fill:#ffffff;fill-opacity:1;stroke:none;font-family:Liberation Sans Narrow;-inkscape-font-specification:Liberation Sans Narrow Bold Condensed"
         id="path3116"
         inkscape:connector-curvature="0" />
    </g>
  </g>
</svg>
